<svg version="1.1" xmlns="http://www.w3.org/2000/svg">
	<symbol fill="none" viewBox="0 0 42 16" id="icon-arrow-left">
		<path fill="currentColor" d="M.293 7.293a1 1 0 0 0 0 1.414l6.364 6.364a1 1 0 0 0 1.414-1.414L2.414 8l5.657-5.657A1 1 0 0 0 6.657.93L.293 7.293ZM42 7H1v2h41V7Z"/>
	</symbol>
	<symbol fill="none" viewBox="0 0 41 16" id="icon-arrow-right">
		<path fill="currentColor" d="M40.707 8.707a1 1 0 0 0 0-1.414L34.343.929a1 1 0 1 0-1.414 1.414L38.586 8l-5.657 5.657a1 1 0 0 0 1.414 1.414l6.364-6.364ZM0 9h40V7H0v2Z"/>
	</symbol>
	<symbol viewBox="0 0 50 50" id="icon-tg">
		<path fill="currentColor" d="M44.377 5.986c-.487.022-.961.157-1.389.328-.423.17-2.86 1.21-6.457 2.748a20314.52 20314.52 0 0 0-12.91 5.528c-9.272 3.972-18.383 7.88-18.383 7.88l.067-.025s-.55.184-1.108.573a3.078 3.078 0 0 0-.824.81 2.145 2.145 0 0 0-.357 1.432c.237 1.925 2.232 2.47 2.232 2.47l.008.004 8.902 3.047c.227.757 2.7 9.012 3.244 10.76.3.966.582 1.524.875 1.904.147.19.301.338.471.446.068.042.139.075.209.103h.004c.009.004.017.004.025.008l-.023-.006c.016.007.032.018.049.024.031.01.05.01.092.02 1.02.355 1.863-.306 1.863-.306l.035-.027 5.469-5.072 8.875 6.92.111.05c1.553.69 2.958.305 3.736-.328s1.084-1.449 1.084-1.449l.034-.086 6.521-33.99c.167-.76.19-1.418.033-2.012-.157-.594-.54-1.11-1.02-1.396a2.588 2.588 0 0 0-1.468-.358zm.053 2.034c.197-.01.344.013.39.04.047.028.067.024.112.192.044.167.068.52-.053 1.072l-.004.012-6.484 33.793c-.016.034-.15.347-.46.598-.314.256-.664.456-1.593.066l-9.705-7.568-.274-.215-.005.006-2.903-2.178 16.31-19.19A1 1 0 0 0 38.976 13a1 1 0 0 0-.53.168L14.844 28.902 5.928 25.85s-.886-.493-.928-.836c-.002-.02-.013-.002.033-.07.046-.07.162-.185.307-.286.29-.202.62-.324.62-.324l.034-.012.033-.013s9.112-3.91 18.383-7.881c4.636-1.986 9.312-3.988 12.908-5.526 3.596-1.537 6.194-2.644 6.414-2.732.25-.1.5-.141.698-.15zM33.613 18.793 21.244 33.346l-.006.006a1 1 0 0 0-.054.072 1 1 0 0 0-.055.084 1 1 0 0 0-.131.385 1 1 0 0 0 0 .007l-1.611 7.246c-.027-.078-.046-.106-.075-.199v-.002c-.511-1.644-2.845-9.429-3.167-10.506l17.468-11.646zM22.641 35.73l2.222 1.668-3.265 3.028 1.043-4.696z"/>
	</symbol>
	<symbol viewBox="0 0 32 32" id="icon-whatsapp">
		<path fill="currentColor" fill-rule="evenodd" d="M24.504 7.504A11.875 11.875 0 0 0 16.05 4C9.465 4 4.1 9.36 4.1 15.945a11.882 11.882 0 0 0 1.594 5.973L4 28.109l6.336-1.664a11.958 11.958 0 0 0 5.71 1.457h.005c6.586 0 11.945-5.359 11.949-11.949 0-3.191-1.242-6.191-3.496-8.45ZM16.05 25.883h-.004a9.93 9.93 0 0 1-5.055-1.383l-.363-.215-3.762.985 1.004-3.665-.234-.375a9.904 9.904 0 0 1-1.52-5.285c0-5.472 4.457-9.925 9.938-9.925a9.863 9.863 0 0 1 7.02 2.91 9.875 9.875 0 0 1 2.905 7.023c0 5.477-4.457 9.93-9.93 9.93Zm5.445-7.438c-.297-.148-1.766-.87-2.039-.968-.273-.102-.473-.149-.672.148-.2.3-.77.973-.945 1.172-.172.195-.348.223-.645.074-.3-.148-1.261-.465-2.402-1.484-.887-.79-1.488-1.77-1.66-2.067-.176-.3-.02-.46.129-.61.136-.132.3-.347.449-.523.148-.171.2-.296.3-.496.098-.199.048-.375-.027-.523-.074-.148-.671-1.621-.921-2.219-.243-.582-.489-.5-.672-.511-.172-.008-.371-.008-.57-.008-.2 0-.524.074-.798.375-.273.297-1.043 1.02-1.043 2.488 0 1.469 1.07 2.89 1.22 3.09.148.195 2.105 3.21 5.1 4.504.712.308 1.266.492 1.7.629.715.226 1.367.195 1.883.12.574-.085 1.765-.722 2.015-1.421.247-.695.247-1.293.172-1.418-.074-.125-.273-.2-.574-.352Z"/>
	</symbol>
</svg>
